<svg xmlns="http://www.w3.org/2000/svg" width="24" height="24" viewBox="0 0 24 24"><path fill="#000" d="M17 15.635q-.961 0-1.634-.673q-.674-.673-.674-1.635t.674-1.635T17 11.02t1.635.673q.673.674.673 1.635t-.674 1.635t-1.634.673M8.923 19.33V20H5.625q-.68 0-1.153-.475Q4 19.052 4 18.386V5.615q0-.666.475-1.14T5.615 4h12.77q.666 0 1.14.475T20 5.615v3.693q-.64-.514-1.394-.786T17 8.25q-.134 0-.25.01t-.25.028v-.057q0-.213-.144-.357T16 7.731H8q-.213 0-.356.144t-.144.357t.144.356T8 8.73h6.923q-.923.4-1.602 1.111q-.679.712-1.05 1.658H8q-.213 0-.356.144T7.5 12t.144.356T8 12.5h4.02q-.097.621-.052 1.246t.245 1.235q-.172.077-.336.144t-.318.144H8q-.213 0-.356.144q-.144.144-.144.357t.144.356t.356.143h2.296q-.655.575-1.014 1.388t-.359 1.674m3.577 2.207q-.343 0-.575-.232t-.233-.575v-1.4q0-.344.164-.647q.164-.302.46-.482q.684-.418 1.186-.586t1.296-.304q.258-.045.5.011q.243.055.404.256L17 19.25l1.273-1.671q.162-.212.404-.262t.505-.005q.809.136 1.297.302q.489.167 1.2.588q.296.179.453.478t.176.631v1.42q0 .343-.233.575t-.575.232z"/></svg>